# xmcd
#
# Track frame offsets:
#	150
#	10357
#	19662
#	28500
#	38495
#	42827
#	55287
#	59937
#	70545
#	75815
#	85962
#	106082
#	108242
#	118465
#	121515
#	136532
#	150060
#	153910
#
# Disc length: 2202
#
# Revision: 1
# Processed by: cddbd v1.5.2PL0 Copyright (c) Steve Scherf et al.
# Submitted via: QCDFreeDB Version 1.0.0 Build 37 
# Normalized: r0:TRMNUM
#
DISCID=c9089812
DTITLE=South Park / Mr Hankey's Christmas Classics
DYEAR=1999
DGENRE=Soundtrack
TTITLE0=Cowboy Timmy - Mr Hankey The Christmas Poo
TTITLE1=Mr. Garrison - Merry F**king Chrstmas
TTITLE2=Eric Cartman - O Holy Night
TTITLE3=Jimmy Schwartz & The South Park Children's Choir - Dead, Dead, Dead
TTITLE4=Mr. Mackey - Carol Of The Bells
TTITLE5=Kyle Broflofski & Special Celebrity Guest - The Lonely Jew On Christmas
TTITLE6=Shelley Marsh - I Saw Three Ships
TTITLE7=Stan Marsh & Wendy Testaburger - It Happened In Sun Valley
TTITLE8=Adolf Hitler - O Tannenbaum
TTITLE9=Satan - Christmas Time In Hell
TTITLE10=Chef - What The Hell Child Is This
TTITLE11=Mr. Hankey - Santa Claus Is On His Way
TTITLE12=Eric Cartman - Swiss Colony Beef Log
TTITLE13=The South Park Children's Choir - Hark The Herald Angels Sing
TTITLE14=The Broflofskis, Eric Cartman & Stan Marsh - Dreidel, Dreidel, Dreidel
TTITLE15=Kenny McCormick & Mr. Hankey - The Most Offensive Song Ever
TTITLE16=Mr. Ose - We Three Kings
TTITLE17=Mr. Hankey, Stan, Kyle & Cartman - Have Yourself A Merry Little Christmas
EXTD=
EXTT0=
EXTT1=
EXTT2=
EXTT3=
EXTT4=
EXTT5=
EXTT6=
EXTT7=
EXTT8=
EXTT9=
EXTT10=
EXTT11=
EXTT12=
EXTT13=
EXTT14=
EXTT15=
EXTT16=
EXTT17=
PLAYORDER=
.
